<svg version="1.1" id="Layer_1" xmlns="http://www.w3.org/2000/svg" xmlns:xlink="http://www.w3.org/1999/xlink" x="0px" y="0px"
	 width="100%" viewBox="0 0 1100 378" enable-background="new 0 0 1100 378" xml:space="preserve">
<path fill="#FFFFFF" opacity="1.000000" stroke="none" 
	d="
M779.000000,379.000000 
	C519.333313,379.000000 260.166656,379.000000 1.000000,379.000000 
	C1.000000,253.000000 1.000000,127.000000 1.000000,1.000000 
	C367.666656,1.000000 734.333313,1.000000 1101.000000,1.000000 
	C1101.000000,127.000000 1101.000000,253.000000 1101.000000,379.000000 
	C993.833313,379.000000 886.666687,379.000000 779.000000,379.000000 
M441.609528,199.056366 
	C434.171387,203.689117 427.038269,208.931000 419.236389,212.837280 
	C398.157532,223.391129 370.496613,218.516724 357.140900,198.485794 
	C354.415741,194.398621 350.603210,190.613510 352.796783,184.404938 
	C357.930695,169.873993 357.702667,155.149689 352.933258,140.454285 
	C352.348633,138.652969 352.344360,136.291046 352.991272,134.526199 
	C355.918701,126.539543 361.626770,120.644508 368.489410,115.953888 
	C384.735657,104.849556 402.014832,103.993088 419.222656,112.903145 
	C429.683441,118.319633 439.347839,125.305748 449.199158,131.844177 
	C451.499695,133.371078 452.413452,133.298157 453.619934,130.901886 
	C455.588928,126.991188 457.741272,123.167252 459.948639,119.383926 
	C461.637787,116.488747 460.943298,114.625061 458.095276,112.959267 
	C455.161133,111.243095 452.444366,109.147308 449.675629,107.157516 
	C430.527557,93.396431 410.161346,84.033646 385.606506,87.896301 
	C376.146027,89.384499 366.997131,91.704575 359.376312,97.371483 
	C351.788849,103.013580 345.066864,109.819572 337.333160,116.675728 
	C334.840057,113.986076 332.129639,109.963295 328.443573,107.281502 
	C314.815613,97.366516 300.234894,89.830429 282.976990,87.716591 
	C272.073730,86.381111 261.754364,87.364693 251.669937,90.879044 
	C231.253433,97.994041 218.271652,112.918556 210.374969,132.466568 
	C208.211151,137.823074 207.637207,143.821823 206.261703,149.840881 
	C214.009079,149.840881 220.309372,149.840881 225.666107,149.840881 
	C228.747147,142.909668 231.045746,136.133530 234.589050,130.086792 
	C243.138580,115.496857 256.407593,107.642120 273.158478,107.191658 
	C285.710297,106.854118 297.410522,111.121902 308.013306,118.003571 
	C319.054565,125.169807 328.047394,133.990967 333.281708,146.491531 
	C336.124725,153.281189 334.613617,160.017715 335.010315,166.786026 
	C335.681488,178.239105 330.138489,187.103668 323.142548,195.333496 
	C313.158722,207.078262 299.088806,212.443756 285.785980,218.944733 
	C276.470856,223.496918 266.584839,227.036896 257.735687,232.334946 
	C251.153702,236.275589 244.476440,241.386017 240.218124,247.603180 
	C231.266190,260.673065 223.950165,274.857422 215.760651,288.462708 
	C214.651810,290.304840 211.803787,293.015961 210.749481,292.629333 
	C207.022461,291.262573 203.294250,289.147980 200.547226,286.352997 
	C199.798553,285.591278 202.446960,281.424835 203.624405,278.861420 
	C204.299286,277.392151 205.131195,275.992889 205.926697,274.581451 
	C212.613770,262.717224 219.544525,250.981888 225.898865,238.942276 
	C228.934967,233.189774 229.710999,226.673584 229.830780,219.352081 
	C223.187622,223.880966 217.282486,227.611633 211.722763,231.800690 
	C208.011993,234.596649 203.909683,237.491776 201.519730,241.305740 
	C194.382065,252.696320 187.977936,264.547943 181.335693,276.246948 
	C177.997955,282.125702 174.765045,288.063934 171.485031,293.974731 
	C186.376953,302.538208 200.817627,310.566528 214.929993,319.135498 
	C218.857651,321.520416 220.788284,321.289398 222.960724,317.426544 
	C230.825348,303.442322 238.779434,289.507538 246.813904,275.620117 
	C250.298141,269.597687 253.354126,263.124146 257.850861,257.935516 
	C265.844818,248.711548 277.639496,245.207977 288.255035,240.020798 
	C298.730194,234.902191 309.546356,230.372894 319.590302,224.517105 
	C326.707031,220.367935 332.787842,214.442017 338.565765,209.909531 
	C344.679352,215.559525 350.227539,222.274460 357.188751,226.830490 
	C380.496735,242.085281 405.265289,241.901474 429.818634,230.351807 
	C440.292969,225.424789 449.697784,218.193970 459.424957,211.762543 
	C460.260132,211.210342 460.468781,208.527557 459.929474,207.285721 
	C457.675476,202.095657 455.024841,197.077866 452.232056,191.413849 
	C448.759399,194.058548 445.547485,196.504669 441.609528,199.056366 
M107.998909,172.530212 
	C105.843102,163.511612 106.834442,154.515259 109.085670,145.775894 
	C115.508995,120.840210 132.417892,107.233322 157.499268,107.279541 
	C164.681259,107.292778 172.152420,109.949486 178.954483,112.714066 
	C186.082748,115.611214 192.566132,120.095070 199.874481,124.189720 
	C203.253647,118.808884 206.679092,113.354362 210.299866,107.588791 
	C208.609253,106.327560 207.090912,105.140007 205.517838,104.029991 
	C192.870819,95.105843 179.002487,88.712746 163.590622,87.199860 
	C148.021805,85.671562 133.010925,88.722839 119.515572,97.168137 
	C105.206062,106.122925 95.991898,119.043289 91.022949,135.035828 
	C86.880791,148.367340 86.071854,161.915421 87.900093,175.812683 
	C90.065674,192.274170 96.120323,206.818176 107.490074,218.901352 
	C116.305328,228.269730 127.485176,234.208344 139.888443,236.727478 
	C151.644394,239.115128 163.752655,239.279953 175.566574,235.980606 
	C191.328125,231.578766 204.349457,222.275070 217.661118,213.194885 
	C225.947968,207.542267 231.041428,202.391647 228.297684,191.232346 
	C226.018097,181.960831 226.348160,172.047699 225.507858,162.251282 
	C211.153137,162.251282 196.761429,162.251282 182.278992,162.251282 
	C182.278992,168.899658 182.278992,175.293823 182.278992,182.129059 
	C190.631729,182.129059 198.714371,182.129059 206.465515,182.129059 
	C207.026917,185.170395 207.964813,187.748764 207.829407,190.269516 
	C207.710190,192.489014 206.968765,195.234100 205.474289,196.697357 
	C202.853073,199.263840 199.517471,201.143097 196.354752,203.106644 
	C183.905380,210.835663 171.637115,218.404083 155.921570,218.150894 
	C128.960083,217.716476 111.137245,198.878708 107.998909,172.530212 
M671.000000,147.614441 
	C671.000000,144.883286 671.000000,142.152145 671.000000,138.089523 
	C676.875671,146.061249 682.117920,152.786087 686.873047,159.839310 
	C688.492981,162.242142 690.082642,163.208435 692.799805,163.030533 
	C695.072021,162.881760 697.361694,163.000000 699.791626,163.000000 
	C699.791626,148.176666 699.791626,133.773636 699.791626,119.207321 
	C696.179138,119.207321 692.776428,119.207321 688.817200,119.207321 
	C688.817200,127.229469 688.817200,135.059540 688.817200,142.889618 
	C683.828125,137.858887 679.607483,132.642288 676.086792,126.989754 
	C672.295044,120.902031 668.000488,116.829338 660.256714,119.522537 
	C660.256714,133.926086 660.256714,148.329636 660.256714,162.741989 
	C663.923340,162.741989 667.326782,162.741989 671.000000,162.741989 
	C671.000000,157.851944 671.000000,153.216949 671.000000,147.614441 
M897.518433,163.000000 
	C902.646423,162.871323 908.050293,163.741531 912.848022,162.416748 
	C924.718750,159.138824 929.484924,150.867020 928.096436,137.747849 
	C927.057678,127.933022 922.103027,121.553772 912.532898,120.092087 
	C904.199341,118.819252 895.634766,119.058350 887.300842,118.635872 
	C887.300842,134.035446 887.300842,148.424866 887.300842,163.000000 
	C890.575928,163.000000 893.553345,163.000000 897.518433,163.000000 
M568.000000,123.622673 
	C568.000000,136.702377 568.000000,149.782074 568.000000,162.544495 
	C577.087830,162.544495 585.702026,163.611389 593.925232,162.274155 
	C604.177795,160.606888 608.284241,152.215561 608.974060,143.976501 
	C610.005798,131.653442 604.877014,122.802460 595.418274,120.522614 
	C587.094421,118.516319 578.072571,119.358398 569.354187,119.180305 
	C568.926575,119.171570 568.452454,121.442398 568.000000,123.622673 
M539.642090,154.997833 
	C538.256409,154.603546 536.825745,154.322891 535.492859,153.795273 
	C529.779236,151.533691 527.291565,146.560318 527.279724,141.135696 
	C527.269470,136.441071 528.840393,131.599670 534.142700,129.275421 
	C540.538208,126.471962 546.096008,128.046204 550.764648,131.836578 
	C553.236389,129.420670 555.422729,127.283737 557.576538,125.178658 
	C552.691162,119.029892 545.952209,117.746780 538.385498,117.921127 
	C528.846558,118.140915 521.939575,122.886116 518.273438,130.936066 
	C514.258667,139.751419 515.313660,148.873627 521.426025,156.969894 
	C528.919739,166.895782 549.456909,166.038757 557.983398,158.417831 
	C558.517944,157.940063 558.942932,157.033478 558.951233,156.320984 
	C559.025146,149.906403 558.994507,143.490631 558.994507,137.337830 
	C551.555908,137.337830 544.808472,137.337830 538.342957,137.337830 
	C538.342957,140.430817 538.342957,143.171173 538.342957,146.256958 
	C542.103760,146.256958 545.521545,146.256958 548.717102,146.256958 
	C549.922729,151.344681 548.216492,153.922485 543.189209,154.059174 
	C542.275513,154.084015 541.377075,154.670074 539.642090,154.997833 
M875.444641,146.958771 
	C871.625671,138.307617 868.025818,129.550034 863.896545,121.049614 
	C861.791809,116.716782 857.353699,119.589355 854.025391,119.162170 
	C852.829224,119.008652 850.760620,120.404778 850.170593,121.618774 
	C846.034973,130.127975 842.142944,138.756989 838.253723,147.384064 
	C836.004333,152.373749 833.905029,157.431137 831.584534,162.814499 
	C836.239685,162.814499 840.020935,162.814499 843.722046,162.814499 
	C844.755981,160.458359 845.708801,158.287079 846.654907,156.131104 
	C853.680054,156.131104 860.650879,156.131104 867.581604,156.131104 
	C869.697510,163.207657 869.697510,163.207657 882.718079,162.920914 
	C880.437134,157.735077 878.198547,152.645630 875.444641,146.958771 
M762.929993,157.460983 
	C765.309570,163.718872 766.972046,164.307571 777.051453,162.339127 
	C770.591309,147.852982 764.152222,133.414108 757.724182,119.000000 
	C755.527893,119.000000 753.666687,119.227127 751.881592,118.954926 
	C747.534668,118.292099 745.092224,119.839264 743.328491,124.058647 
	C737.898926,137.048203 732.027588,149.853073 726.283081,162.830963 
	C730.592468,162.830963 734.697144,162.830963 738.421631,162.830963 
	C739.498718,160.377808 740.452393,158.205734 741.597229,155.598312 
	C748.559875,156.024902 755.431702,156.445938 762.929993,157.460983 
M936.000000,128.533646 
	C936.000000,139.959610 936.000000,151.385574 936.000000,162.707550 
	C948.006897,162.707550 959.416809,162.707550 970.702271,162.707550 
	C970.702271,159.668396 970.702271,156.929001 970.702271,153.810516 
	C962.660400,153.810516 954.910156,153.810516 947.298462,153.810516 
	C947.298462,150.666992 947.298462,147.927567 947.298462,144.808960 
	C954.674133,144.808960 961.757263,144.808960 968.700562,144.808960 
	C968.700562,141.661850 968.700562,138.922180 968.700562,135.810135 
	C961.320618,135.810135 954.233337,135.810135 947.299194,135.810135 
	C947.299194,133.001022 947.299194,130.593292 947.299194,127.807327 
	C955.009888,127.807327 962.427734,127.807327 969.699219,127.807327 
	C969.699219,124.662674 969.699219,121.923149 969.699219,119.301033 
	C958.325562,119.301033 947.255066,119.301033 936.000000,119.301033 
	C936.000000,122.248436 936.000000,124.896255 936.000000,128.533646 
M813.421021,119.000000 
	C807.333618,119.000000 801.246216,119.000000 795.288086,119.000000 
	C795.288086,134.011948 795.288086,148.406769 795.288086,162.713806 
	C798.988220,162.713806 802.394226,162.713806 806.176636,162.713806 
	C806.176636,158.689407 806.176636,154.943588 806.176636,150.999985 
	C810.539673,150.999985 814.513000,151.054382 818.484375,150.987640 
	C824.982300,150.878433 830.257385,147.729904 832.257507,141.920456 
	C834.299072,135.990402 834.848694,129.463074 829.604736,123.977623 
	C825.296265,119.470711 820.101807,118.693779 813.421021,119.000000 
M613.968445,126.661156 
	C614.755920,128.050400 615.368164,129.581284 616.358826,130.806244 
	C623.574585,139.729004 628.116821,149.459946 626.028564,161.323364 
	C625.953796,161.748230 626.213989,162.232025 626.339294,162.781525 
	C629.849487,162.781525 633.250000,162.781525 637.000000,162.781525 
	C637.000000,159.778259 637.217590,156.966934 636.952393,154.201904 
	C636.477173,149.247437 637.857178,145.185196 640.873657,141.113434 
	C645.985352,134.213684 650.426575,126.817307 655.563416,119.000000 
	C652.453613,119.000000 650.147888,119.207947 647.893677,118.955872 
	C643.466003,118.460762 640.618591,119.680489 638.807739,124.245964 
	C637.377747,127.851219 634.533020,130.895355 631.874084,134.846313 
	C628.476929,129.233383 625.440125,124.215927 622.330444,119.078003 
	C618.162109,119.078003 613.850281,119.078003 608.885437,119.078003 
	C610.572144,121.596115 612.059875,123.817245 613.968445,126.661156 
M1000.493774,153.000000 
	C996.725342,153.000000 992.956970,153.000000 988.818542,153.000000 
	C988.818542,141.346603 988.818542,130.268387 988.818542,119.292229 
	C985.008911,119.292229 981.601562,119.292229 978.291748,119.292229 
	C978.291748,133.989212 978.291748,148.392136 978.291748,162.711395 
	C989.327820,162.711395 1000.069885,162.711395 1010.706299,162.711395 
	C1010.706299,159.341385 1010.706299,156.266357 1010.706299,153.000000 
	C1007.435303,153.000000 1004.456116,153.000000 1000.493774,153.000000 
M719.501160,177.000000 
	C714.744263,177.000000 709.987366,177.000000 705.243652,177.000000 
	C705.243652,186.929657 705.243652,196.313171 705.243652,205.999390 
	C714.920044,205.999390 724.357727,206.108673 733.790955,205.949692 
	C738.010925,205.878571 740.867004,202.546402 741.018982,198.400665 
	C741.167480,194.350479 739.781433,190.540451 740.743958,186.202164 
	C742.075439,180.201202 738.401611,177.040573 731.960754,177.003983 
	C728.139954,176.982254 724.318970,177.000000 719.501160,177.000000 
M708.000000,125.577362 
	C708.000000,138.002228 708.000000,150.427094 708.000000,162.683105 
	C712.369324,162.683105 716.110046,162.683105 719.684326,162.683105 
	C719.684326,147.957306 719.684326,133.550171 719.684326,119.321587 
	C715.623169,119.321587 711.883057,119.321587 708.000000,119.321587 
	C708.000000,121.295280 708.000000,122.948112 708.000000,125.577362 
M647.000000,185.568634 
	C647.000000,184.071320 646.845337,182.554306 647.032959,181.080887 
	C647.397644,178.217560 646.485413,175.770828 643.497070,176.265320 
	C642.101501,176.496231 640.308777,179.350464 640.158630,181.138474 
	C639.714844,186.425003 639.910706,191.774658 640.025269,197.095978 
	C640.138184,202.338516 643.150085,205.776489 648.152893,205.941208 
	C655.132812,206.171021 662.136169,206.230484 669.110107,205.922226 
	C674.491150,205.684372 676.945435,202.745621 676.989441,197.432602 
	C677.036316,191.776474 676.831970,186.112427 677.073914,180.466278 
	C677.187500,177.814926 676.080139,176.121964 673.827515,176.244629 
	C672.816528,176.299683 671.221802,178.747925 671.129089,180.189774 
	C670.798767,185.325958 670.779785,190.508865 671.072754,195.649597 
	C671.289185,199.446457 669.105835,200.751495 666.153748,200.919235 
	C661.178772,201.201920 656.175049,201.058243 651.185364,200.974976 
	C648.386902,200.928253 646.674438,199.840454 646.941589,196.524048 
	C647.207947,193.218155 647.000000,189.874023 647.000000,185.568634 
M541.462952,177.000000 
	C536.466187,177.000000 531.468750,176.946457 526.472900,177.013107 
	C519.702148,177.103424 518.002197,178.810074 518.000244,185.309952 
	C517.998901,189.640457 518.236816,193.987350 517.938660,198.297226 
	C517.583923,203.425217 520.766052,205.638901 524.805115,205.855072 
	C533.402710,206.315231 542.041992,205.995667 551.014160,205.995667 
	C550.921021,204.056351 550.848938,202.555832 550.774170,200.999756 
	C543.407471,200.999756 536.582397,201.062744 529.759216,200.974854 
	C525.990295,200.926315 523.492432,199.534546 523.950684,195.056839 
	C524.220581,192.419540 524.239929,189.705109 523.944519,187.073334 
	C523.484985,182.979187 525.582092,181.949066 529.096313,181.981842 
	C535.758057,182.044006 542.420837,182.008499 549.083069,181.980637 
	C549.702148,181.978027 550.320251,181.739777 551.073242,181.582947 
	C550.964417,179.990097 550.868225,178.582108 550.760132,177.000000 
	C547.745911,177.000000 545.097595,177.000000 541.462952,177.000000 
M588.791382,206.000000 
	C595.449402,205.999985 602.111938,206.129654 608.761841,205.896942 
	C610.192139,205.846893 611.576599,204.488083 612.982178,203.732147 
	C611.565125,202.821442 610.183655,201.197723 608.724731,201.124786 
	C602.747437,200.825928 596.745483,201.066452 590.754639,200.975479 
	C586.986877,200.918274 584.638611,199.535782 584.926758,195.059250 
	C585.246826,190.086319 585.172791,185.067062 584.889099,180.089706 
	C584.809387,178.691040 583.487427,176.311493 582.562744,176.224930 
	C580.437988,176.026031 578.801941,177.172302 578.928101,180.071121 
	C579.173889,185.719757 578.997620,191.386642 579.000671,197.045975 
	C579.003967,203.228287 581.429199,205.674301 588.791382,206.000000 
M303.203522,170.949341 
	C302.149811,172.640213 300.188995,174.369781 300.259094,176.012711 
	C300.359436,178.364685 301.362274,181.345779 303.060211,182.771500 
	C304.710449,184.157211 307.918213,184.750458 310.100098,184.237427 
	C316.157257,182.813202 316.890747,177.812302 314.908997,172.838242 
	C313.466217,169.216873 308.659027,168.335480 303.203522,170.949341 
M283.597656,183.868515 
	C282.399567,185.950027 280.534119,187.917526 280.154572,190.138901 
	C279.534576,193.767700 281.865448,196.394043 285.172150,197.585449 
	C288.468109,198.772995 291.888580,198.262131 294.043732,195.306229 
	C296.107666,192.475433 296.846893,189.240616 294.461609,185.922409 
	C291.719666,182.108063 287.966125,182.827652 283.597656,183.868515 
M258.963409,140.793427 
	C258.321014,140.043625 257.793579,139.135330 257.016327,138.571426 
	C253.642593,136.123749 249.024429,136.428192 246.270355,139.266068 
	C243.336273,142.289429 243.240936,145.628784 245.558014,149.023193 
	C247.368118,151.674927 253.342422,153.456757 255.703598,151.603287 
	C258.810120,149.164749 261.675323,146.163803 258.963409,140.793427 
M295.971558,170.166214 
	C297.777893,166.382416 297.675812,162.711487 294.332092,159.960922 
	C291.295990,157.463425 287.780670,157.713135 284.596008,159.960037 
	C281.657623,162.033203 280.897705,167.757706 283.033997,170.512222 
	C286.547241,175.042282 290.611389,175.162338 295.971558,170.166214 
M247.197479,175.698471 
	C248.178040,175.798904 249.156601,175.929199 250.139496,175.994537 
	C254.249252,176.267776 257.319489,174.776428 257.921387,170.436844 
	C258.458771,166.562256 258.071320,162.756104 253.500504,161.217941 
	C249.495789,159.870285 245.277832,161.528519 243.484009,165.033936 
	C241.793716,168.337051 243.135544,172.697250 247.197479,175.698471 
M264.387238,159.886871 
	C268.143463,163.598434 273.691071,164.122391 276.454041,161.026550 
	C278.888519,158.298767 278.903107,150.915680 275.767639,149.600418 
	C272.858795,148.380219 268.584961,148.055206 265.851807,149.338028 
	C261.932495,151.177582 262.307556,155.414566 264.387238,159.886871 
M276.138031,182.390732 
	C277.616547,177.603073 275.816711,173.154068 271.948273,172.034119 
	C268.858032,171.139496 262.638214,173.264008 262.026825,175.423035 
	C260.598419,180.467224 262.355164,185.511093 266.246399,186.647797 
	C270.178284,187.796341 273.772552,187.251938 276.138031,182.390732 
M283.003510,144.084625 
	C284.239136,149.754410 288.687592,149.442566 292.760742,148.872925 
	C296.502380,148.349670 298.128296,145.560883 298.010071,141.771255 
	C297.863708,137.080811 294.480988,133.862762 289.746155,134.000565 
	C284.871002,134.142456 283.028625,136.664902 283.003510,144.084625 
M270.882812,196.375656 
	C266.998688,195.024490 264.277496,196.749023 263.141663,200.211807 
	C262.051117,203.536423 263.436127,206.779129 267.060364,207.353439 
	C269.178375,207.689072 272.727753,206.765198 273.640472,205.226166 
	C275.265656,202.485825 275.845581,198.715546 270.882812,196.375656 
M252.494644,196.074387 
	C253.570724,193.832184 256.061127,190.912155 255.388260,189.508118 
	C254.402283,187.450760 251.110703,185.259521 248.875107,185.333908 
	C245.625015,185.442001 243.299835,188.532181 244.165634,192.031387 
	C245.070541,195.688675 247.690552,197.849487 252.494644,196.074387 
M267.058960,134.336105 
	C269.324219,137.667297 272.306610,137.965286 275.458435,135.940262 
	C278.647827,133.891098 279.158508,130.546875 276.800171,128.016388 
	C275.405884,126.520309 272.080414,125.714600 270.007111,126.208702 
	C266.488831,127.047203 265.141174,129.907578 267.058960,134.336105 
M314.999481,152.646942 
	C314.921295,148.608200 312.740051,146.715683 308.840546,147.044220 
	C305.001984,147.367615 303.210724,150.127411 304.205536,153.411652 
	C304.859680,155.571274 307.338440,158.450363 309.242493,158.645737 
	C311.772278,158.905350 315.566711,157.951385 314.999481,152.646942 
z"/>
<path fill="#2810F0" opacity="1.000000" stroke="none" 
	d="
M441.972565,199.003571 
	C445.547485,196.504669 448.759399,194.058548 452.232056,191.413849 
	C455.024841,197.077866 457.675476,202.095657 459.929474,207.285721 
	C460.468781,208.527557 460.260132,211.210342 459.424957,211.762543 
	C449.697784,218.193970 440.292969,225.424789 429.818634,230.351807 
	C405.265289,241.901474 380.496735,242.085281 357.188751,226.830490 
	C350.227539,222.274460 344.679352,215.559525 338.565765,209.909531 
	C332.787842,214.442017 326.707031,220.367935 319.590302,224.517105 
	C309.546356,230.372894 298.730194,234.902191 288.255035,240.020798 
	C277.639496,245.207977 265.844818,248.711548 257.850861,257.935516 
	C253.354126,263.124146 250.298141,269.597687 246.813904,275.620117 
	C238.779434,289.507538 230.825348,303.442322 222.960724,317.426544 
	C220.788284,321.289398 218.857651,321.520416 214.929993,319.135498 
	C200.817627,310.566528 186.376953,302.538208 171.485031,293.974731 
	C174.765045,288.063934 177.997955,282.125702 181.335693,276.246948 
	C187.977936,264.547943 194.382065,252.696320 201.519730,241.305740 
	C203.909683,237.491776 208.011993,234.596649 211.722763,231.800690 
	C217.282486,227.611633 223.187622,223.880966 229.830780,219.352081 
	C229.710999,226.673584 228.934967,233.189774 225.898865,238.942276 
	C219.544525,250.981888 212.613770,262.717224 205.926697,274.581451 
	C205.131195,275.992889 204.299286,277.392151 203.624405,278.861420 
	C202.446960,281.424835 199.798553,285.591278 200.547226,286.352997 
	C203.294250,289.147980 207.022461,291.262573 210.749481,292.629333 
	C211.803787,293.015961 214.651810,290.304840 215.760651,288.462708 
	C223.950165,274.857422 231.266190,260.673065 240.218124,247.603180 
	C244.476440,241.386017 251.153702,236.275589 257.735687,232.334946 
	C266.584839,227.036896 276.470856,223.496918 285.785980,218.944733 
	C299.088806,212.443756 313.158722,207.078262 323.142548,195.333496 
	C330.138489,187.103668 335.681488,178.239105 335.010315,166.786026 
	C334.613617,160.017715 336.124725,153.281189 333.281708,146.491531 
	C328.047394,133.990967 319.054565,125.169807 308.013306,118.003571 
	C297.410522,111.121902 285.710297,106.854118 273.158478,107.191658 
	C256.407593,107.642120 243.138580,115.496857 234.589050,130.086792 
	C231.045746,136.133530 228.747147,142.909668 225.666107,149.840881 
	C220.309372,149.840881 214.009079,149.840881 206.261703,149.840881 
	C207.637207,143.821823 208.211151,137.823074 210.374969,132.466568 
	C218.271652,112.918556 231.253433,97.994041 251.669937,90.879044 
	C261.754364,87.364693 272.073730,86.381111 282.976990,87.716591 
	C300.234894,89.830429 314.815613,97.366516 328.443573,107.281502 
	C332.129639,109.963295 334.840057,113.986076 337.333160,116.675728 
	C345.066864,109.819572 351.788849,103.013580 359.376312,97.371483 
	C366.997131,91.704575 376.146027,89.384499 385.606506,87.896301 
	C410.161346,84.033646 430.527557,93.396431 449.675629,107.157516 
	C452.444366,109.147308 455.161133,111.243095 458.095276,112.959267 
	C460.943298,114.625061 461.637787,116.488747 459.948639,119.383926 
	C457.741272,123.167252 455.588928,126.991188 453.619934,130.901886 
	C452.413452,133.298157 451.499695,133.371078 449.199158,131.844177 
	C439.347839,125.305748 429.683441,118.319633 419.222656,112.903145 
	C402.014832,103.993088 384.735657,104.849556 368.489410,115.953888 
	C361.626770,120.644508 355.918701,126.539543 352.991272,134.526199 
	C352.344360,136.291046 352.348633,138.652969 352.933258,140.454285 
	C357.702667,155.149689 357.930695,169.873993 352.796783,184.404938 
	C350.603210,190.613510 354.415741,194.398621 357.140900,198.485794 
	C370.496613,218.516724 398.157532,223.391129 419.236389,212.837280 
	C427.038269,208.931000 434.171387,203.689117 441.972565,199.003571 
z"/>
<path fill="#2810F0" opacity="1.000000" stroke="none" 
	d="
M107.999428,172.980148 
	C111.137245,198.878708 128.960083,217.716476 155.921570,218.150894 
	C171.637115,218.404083 183.905380,210.835663 196.354752,203.106644 
	C199.517471,201.143097 202.853073,199.263840 205.474289,196.697357 
	C206.968765,195.234100 207.710190,192.489014 207.829407,190.269516 
	C207.964813,187.748764 207.026917,185.170395 206.465515,182.129059 
	C198.714371,182.129059 190.631729,182.129059 182.278992,182.129059 
	C182.278992,175.293823 182.278992,168.899658 182.278992,162.251282 
	C196.761429,162.251282 211.153137,162.251282 225.507858,162.251282 
	C226.348160,172.047699 226.018097,181.960831 228.297684,191.232346 
	C231.041428,202.391647 225.947968,207.542267 217.661118,213.194885 
	C204.349457,222.275070 191.328125,231.578766 175.566574,235.980606 
	C163.752655,239.279953 151.644394,239.115128 139.888443,236.727478 
	C127.485176,234.208344 116.305328,228.269730 107.490074,218.901352 
	C96.120323,206.818176 90.065674,192.274170 87.900093,175.812683 
	C86.071854,161.915421 86.880791,148.367340 91.022949,135.035828 
	C95.991898,119.043289 105.206062,106.122925 119.515572,97.168137 
	C133.010925,88.722839 148.021805,85.671562 163.590622,87.199860 
	C179.002487,88.712746 192.870819,95.105843 205.517838,104.029991 
	C207.090912,105.140007 208.609253,106.327560 210.299866,107.588791 
	C206.679092,113.354362 203.253647,118.808884 199.874481,124.189720 
	C192.566132,120.095070 186.082748,115.611214 178.954483,112.714066 
	C172.152420,109.949486 164.681259,107.292778 157.499268,107.279541 
	C132.417892,107.233322 115.508995,120.840210 109.085670,145.775894 
	C106.834442,154.515259 105.843102,163.511612 107.999428,172.980148 
z"/>
<path fill="#000000" opacity="1.000000" stroke="none" 
	d="
M671.000000,148.098190 
	C671.000000,153.216949 671.000000,157.851944 671.000000,162.741989 
	C667.326782,162.741989 663.923340,162.741989 660.256714,162.741989 
	C660.256714,148.329636 660.256714,133.926086 660.263367,119.523056 
	C668.000488,116.829338 672.295044,120.902031 676.086792,126.989754 
	C679.607483,132.642288 683.828125,137.858887 688.817200,142.889618 
	C688.817200,135.059540 688.817200,127.229469 688.817200,119.207321 
	C692.776428,119.207321 696.179138,119.207321 699.791626,119.207321 
	C699.791626,133.773636 699.791626,148.176666 699.791626,163.000000 
	C697.361694,163.000000 695.072021,162.881760 692.799805,163.030533 
	C690.082642,163.208435 688.492981,162.242142 686.873047,159.839310 
	C682.117920,152.786087 676.875671,146.061249 671.000000,138.089523 
	C671.000000,142.152145 671.000000,144.883286 671.000000,148.098190 
z"/>
<path fill="#000000" opacity="1.000000" stroke="none" 
	d="
M897.024597,163.000000 
	C893.553345,163.000000 890.575928,163.000000 887.300842,163.000000 
	C887.300842,148.424866 887.300842,134.035446 887.300842,118.635872 
	C895.634766,119.058350 904.199341,118.819252 912.532898,120.092087 
	C922.103027,121.553772 927.057678,127.933022 928.096436,137.747849 
	C929.484924,150.867020 924.718750,159.138824 912.848022,162.416748 
	C908.050293,163.741531 902.646423,162.871323 897.024597,163.000000 
M899.000000,142.489975 
	C899.000000,146.272049 899.000000,150.054123 899.000000,154.075195 
	C905.852600,153.790115 912.903992,154.024750 915.637085,147.139282 
	C917.130188,143.377838 916.991211,137.813507 915.254333,134.176895 
	C912.097717,127.567711 905.299438,128.736954 899.000000,129.237137 
	C899.000000,133.548645 899.000000,137.524094 899.000000,142.489975 
z"/>
<path fill="#000000" opacity="1.000000" stroke="none" 
	d="
M568.000000,123.137207 
	C568.452454,121.442398 568.926575,119.171570 569.354187,119.180305 
	C578.072571,119.358398 587.094421,118.516319 595.418274,120.522614 
	C604.877014,122.802460 610.005798,131.653442 608.974060,143.976501 
	C608.284241,152.215561 604.177795,160.606888 593.925232,162.274155 
	C585.702026,163.611389 577.087830,162.544495 568.000000,162.544495 
	C568.000000,149.782074 568.000000,136.702377 568.000000,123.137207 
M592.126831,151.988312 
	C598.220032,146.802841 599.497192,141.636688 596.364075,134.847473 
	C593.954224,129.625397 588.524780,127.945778 579.259094,129.554382 
	C579.259094,137.634293 579.259094,145.714188 579.259094,154.689301 
	C583.567505,153.782059 587.450745,152.964340 592.126831,151.988312 
z"/>
<path fill="#000000" opacity="1.000000" stroke="none" 
	d="
M540.056824,154.997437 
	C541.377075,154.670074 542.275513,154.084015 543.189209,154.059174 
	C548.216492,153.922485 549.922729,151.344681 548.717102,146.256958 
	C545.521545,146.256958 542.103760,146.256958 538.342957,146.256958 
	C538.342957,143.171173 538.342957,140.430817 538.342957,137.337830 
	C544.808472,137.337830 551.555908,137.337830 558.994507,137.337830 
	C558.994507,143.490631 559.025146,149.906403 558.951233,156.320984 
	C558.942932,157.033478 558.517944,157.940063 557.983398,158.417831 
	C549.456909,166.038757 528.919739,166.895782 521.426025,156.969894 
	C515.313660,148.873627 514.258667,139.751419 518.273438,130.936066 
	C521.939575,122.886116 528.846558,118.140915 538.385498,117.921127 
	C545.952209,117.746780 552.691162,119.029892 557.576538,125.178658 
	C555.422729,127.283737 553.236389,129.420670 550.764648,131.836578 
	C546.096008,128.046204 540.538208,126.471962 534.142700,129.275421 
	C528.840393,131.599670 527.269470,136.441071 527.279724,141.135696 
	C527.291565,146.560318 529.779236,151.533691 535.492859,153.795273 
	C536.825745,154.322891 538.256409,154.603546 540.056824,154.997437 
z"/>
<path fill="#000000" opacity="1.000000" stroke="none" 
	d="
M875.702332,147.257477 
	C878.198547,152.645630 880.437134,157.735077 882.718079,162.920914 
	C869.697510,163.207657 869.697510,163.207657 867.581604,156.131104 
	C860.650879,156.131104 853.680054,156.131104 846.654907,156.131104 
	C845.708801,158.287079 844.755981,160.458359 843.722046,162.814499 
	C840.020935,162.814499 836.239685,162.814499 831.584534,162.814499 
	C833.905029,157.431137 836.004333,152.373749 838.253723,147.384064 
	C842.142944,138.756989 846.034973,130.127975 850.170593,121.618774 
	C850.760620,120.404778 852.829224,119.008652 854.025391,119.162170 
	C857.353699,119.589355 861.791809,116.716782 863.896545,121.049614 
	C868.025818,129.550034 871.625671,138.307617 875.702332,147.257477 
M854.963318,136.382828 
	C853.625610,139.428970 852.287903,142.475113 850.866211,145.712372 
	C855.110413,145.712372 858.972656,145.712372 863.318115,145.712372 
	C861.188477,140.757538 859.244568,136.234863 857.018250,131.055115 
	C856.060608,133.247528 855.550232,134.415894 854.963318,136.382828 
z"/>
<path fill="#000000" opacity="1.000000" stroke="none" 
	d="
M762.616760,157.163971 
	C755.431702,156.445938 748.559875,156.024902 741.597229,155.598312 
	C740.452393,158.205734 739.498718,160.377808 738.421631,162.830963 
	C734.697144,162.830963 730.592468,162.830963 726.283081,162.830963 
	C732.027588,149.853073 737.898926,137.048203 743.328491,124.058647 
	C745.092224,119.839264 747.534668,118.292099 751.881592,118.954926 
	C753.666687,119.227127 755.527893,119.000000 757.724182,119.000000 
	C764.152222,133.414108 770.591309,147.852982 777.051453,162.339127 
	C766.972046,164.307571 765.309570,163.718872 762.616760,157.163971 
M753.625488,135.097504 
	C752.958069,134.099945 752.290649,133.102386 751.346436,131.691193 
	C749.397827,136.645630 747.641296,141.111588 745.792847,145.811218 
	C750.157715,145.811218 753.853027,145.811218 757.763794,145.811218 
	C756.439453,142.309616 755.206543,139.049850 753.625488,135.097504 
z"/>
<path fill="#000000" opacity="1.000000" stroke="none" 
	d="
M936.000000,128.038849 
	C936.000000,124.896255 936.000000,122.248436 936.000000,119.301033 
	C947.255066,119.301033 958.325562,119.301033 969.699219,119.301033 
	C969.699219,121.923149 969.699219,124.662674 969.699219,127.807327 
	C962.427734,127.807327 955.009888,127.807327 947.299194,127.807327 
	C947.299194,130.593292 947.299194,133.001022 947.299194,135.810135 
	C954.233337,135.810135 961.320618,135.810135 968.700562,135.810135 
	C968.700562,138.922180 968.700562,141.661850 968.700562,144.808960 
	C961.757263,144.808960 954.674133,144.808960 947.298462,144.808960 
	C947.298462,147.927567 947.298462,150.666992 947.298462,153.810516 
	C954.910156,153.810516 962.660400,153.810516 970.702271,153.810516 
	C970.702271,156.929001 970.702271,159.668396 970.702271,162.707550 
	C959.416809,162.707550 948.006897,162.707550 936.000000,162.707550 
	C936.000000,151.385574 936.000000,139.959610 936.000000,128.038849 
z"/>
<path fill="#000000" opacity="1.000000" stroke="none" 
	d="
M813.906067,119.000000 
	C820.101807,118.693779 825.296265,119.470711 829.604736,123.977623 
	C834.848694,129.463074 834.299072,135.990402 832.257507,141.920456 
	C830.257385,147.729904 824.982300,150.878433 818.484375,150.987640 
	C814.513000,151.054382 810.539673,150.999985 806.176636,150.999985 
	C806.176636,154.943588 806.176636,158.689407 806.176636,162.713806 
	C802.394226,162.713806 798.988220,162.713806 795.288086,162.713806 
	C795.288086,148.406769 795.288086,134.011948 795.288086,119.000000 
	C801.246216,119.000000 807.333618,119.000000 813.906067,119.000000 
M810.523010,129.000000 
	C809.091553,129.067276 807.660034,129.134552 806.247925,129.200912 
	C806.247925,133.268982 806.247925,136.995316 806.247925,140.999969 
	C809.609802,140.999969 812.727356,140.993073 815.844910,141.001709 
	C819.832947,141.012741 821.898560,138.921738 821.965149,135.046967 
	C822.032959,131.098969 819.893005,129.070938 815.939819,129.004135 
	C814.448975,128.978928 812.957275,129.000015 810.523010,129.000000 
z"/>
<path fill="#000000" opacity="1.000000" stroke="none" 
	d="
M613.758057,126.349762 
	C612.059875,123.817245 610.572144,121.596115 608.885437,119.078003 
	C613.850281,119.078003 618.162109,119.078003 622.330444,119.078003 
	C625.440125,124.215927 628.476929,129.233383 631.874084,134.846313 
	C634.533020,130.895355 637.377747,127.851219 638.807739,124.245964 
	C640.618591,119.680489 643.466003,118.460762 647.893677,118.955872 
	C650.147888,119.207947 652.453613,119.000000 655.563416,119.000000 
	C650.426575,126.817307 645.985352,134.213684 640.873657,141.113434 
	C637.857178,145.185196 636.477173,149.247437 636.952393,154.201904 
	C637.217590,156.966934 637.000000,159.778259 637.000000,162.781525 
	C633.250000,162.781525 629.849487,162.781525 626.339294,162.781525 
	C626.213989,162.232025 625.953796,161.748230 626.028564,161.323364 
	C628.116821,149.459946 623.574585,139.729004 616.358826,130.806244 
	C615.368164,129.581284 614.755920,128.050400 613.758057,126.349762 
z"/>
<path fill="#000000" opacity="1.000000" stroke="none" 
	d="
M1000.985352,153.000000 
	C1004.456116,153.000000 1007.435303,153.000000 1010.706299,153.000000 
	C1010.706299,156.266357 1010.706299,159.341385 1010.706299,162.711395 
	C1000.069885,162.711395 989.327820,162.711395 978.291748,162.711395 
	C978.291748,148.392136 978.291748,133.989212 978.291748,119.292229 
	C981.601562,119.292229 985.008911,119.292229 988.818542,119.292229 
	C988.818542,130.268387 988.818542,141.346603 988.818542,153.000000 
	C992.956970,153.000000 996.725342,153.000000 1000.985352,153.000000 
z"/>
<path fill="#000000" opacity="1.000000" stroke="none" 
	d="
M719.999634,177.000000 
	C724.318970,177.000000 728.139954,176.982254 731.960754,177.003983 
	C738.401611,177.040573 742.075439,180.201202 740.743958,186.202164 
	C739.781433,190.540451 741.167480,194.350479 741.018982,198.400665 
	C740.867004,202.546402 738.010925,205.878571 733.790955,205.949692 
	C724.357727,206.108673 714.920044,205.999390 705.243652,205.999390 
	C705.243652,196.313171 705.243652,186.929657 705.243652,177.000000 
	C709.987366,177.000000 714.744263,177.000000 719.999634,177.000000 
M714.670593,193.999985 
	C713.449463,194.118423 712.228333,194.236862 711.204834,194.336136 
	C711.204834,196.758255 711.204834,198.698318 711.204834,200.999802 
	C717.676697,200.999802 723.960754,201.191315 730.218567,200.869766 
	C731.853210,200.785767 733.405884,199.105453 734.996216,198.158310 
	C733.359192,196.772232 731.838379,194.399704 730.062805,194.190643 
	C725.312439,193.631348 720.452759,194.000015 714.670593,193.999985 
M711.004639,187.389755 
	C711.035950,187.715561 711.068970,188.327011 711.098267,188.326828 
	C718.221436,188.283752 725.350891,188.323227 732.459351,187.957001 
	C733.360901,187.910538 734.946655,185.596878 734.772522,184.580887 
	C734.597839,183.561981 732.641296,182.165039 731.423706,182.121902 
	C724.688843,181.883392 717.941101,182.007736 711.000244,182.007736 
	C711.000244,183.832581 711.000244,185.138214 711.004639,187.389755 
z"/>
<path fill="#000000" opacity="1.000000" stroke="none" 
	d="
M708.000000,125.089157 
	C708.000000,122.948112 708.000000,121.295280 708.000000,119.321587 
	C711.883057,119.321587 715.623169,119.321587 719.684326,119.321587 
	C719.684326,133.550171 719.684326,147.957306 719.684326,162.683105 
	C716.110046,162.683105 712.369324,162.683105 708.000000,162.683105 
	C708.000000,150.427094 708.000000,138.002228 708.000000,125.089157 
z"/>
<path fill="#000000" opacity="1.000000" stroke="none" 
	d="
M647.000000,186.057648 
	C647.000000,189.874023 647.207947,193.218155 646.941589,196.524048 
	C646.674438,199.840454 648.386902,200.928253 651.185364,200.974976 
	C656.175049,201.058243 661.178772,201.201920 666.153748,200.919235 
	C669.105835,200.751495 671.289185,199.446457 671.072754,195.649597 
	C670.779785,190.508865 670.798767,185.325958 671.129089,180.189774 
	C671.221802,178.747925 672.816528,176.299683 673.827515,176.244629 
	C676.080139,176.121964 677.187500,177.814926 677.073914,180.466278 
	C676.831970,186.112427 677.036316,191.776474 676.989441,197.432602 
	C676.945435,202.745621 674.491150,205.684372 669.110107,205.922226 
	C662.136169,206.230484 655.132812,206.171021 648.152893,205.941208 
	C643.150085,205.776489 640.138184,202.338516 640.025269,197.095978 
	C639.910706,191.774658 639.714844,186.425003 640.158630,181.138474 
	C640.308777,179.350464 642.101501,176.496231 643.497070,176.265320 
	C646.485413,175.770828 647.397644,178.217560 647.032959,181.080887 
	C646.845337,182.554306 647.000000,184.071320 647.000000,186.057648 
z"/>
<path fill="#000000" opacity="1.000000" stroke="none" 
	d="
M541.956116,177.000000 
	C545.097595,177.000000 547.745911,177.000000 550.760132,177.000000 
	C550.868225,178.582108 550.964417,179.990097 551.073242,181.582947 
	C550.320251,181.739777 549.702148,181.978027 549.083069,181.980637 
	C542.420837,182.008499 535.758057,182.044006 529.096313,181.981842 
	C525.582092,181.949066 523.484985,182.979187 523.944519,187.073334 
	C524.239929,189.705109 524.220581,192.419540 523.950684,195.056839 
	C523.492432,199.534546 525.990295,200.926315 529.759216,200.974854 
	C536.582397,201.062744 543.407471,200.999756 550.774170,200.999756 
	C550.848938,202.555832 550.921021,204.056351 551.014160,205.995667 
	C542.041992,205.995667 533.402710,206.315231 524.805115,205.855072 
	C520.766052,205.638901 517.583923,203.425217 517.938660,198.297226 
	C518.236816,193.987350 517.998901,189.640457 518.000244,185.309952 
	C518.002197,178.810074 519.702148,177.103424 526.472900,177.013107 
	C531.468750,176.946457 536.466187,177.000000 541.956116,177.000000 
z"/>
<path fill="#000000" opacity="1.000000" stroke="none" 
	d="
M588.330566,206.000000 
	C581.429199,205.674301 579.003967,203.228287 579.000671,197.045975 
	C578.997620,191.386642 579.173889,185.719757 578.928101,180.071121 
	C578.801941,177.172302 580.437988,176.026031 582.562744,176.224930 
	C583.487427,176.311493 584.809387,178.691040 584.889099,180.089706 
	C585.172791,185.067062 585.246826,190.086319 584.926758,195.059250 
	C584.638611,199.535782 586.986877,200.918274 590.754639,200.975479 
	C596.745483,201.066452 602.747437,200.825928 608.724731,201.124786 
	C610.183655,201.197723 611.565125,202.821442 612.982178,203.732147 
	C611.576599,204.488083 610.192139,205.846893 608.761841,205.896942 
	C602.111938,206.129654 595.449402,205.999985 588.330566,206.000000 
z"/>
<path fill="#2810F0" opacity="1.000000" stroke="none" 
	d="
M303.569824,170.759369 
	C308.659027,168.335480 313.466217,169.216873 314.908997,172.838242 
	C316.890747,177.812302 316.157257,182.813202 310.100098,184.237427 
	C307.918213,184.750458 304.710449,184.157211 303.060211,182.771500 
	C301.362274,181.345779 300.359436,178.364685 300.259094,176.012711 
	C300.188995,174.369781 302.149811,172.640213 303.569824,170.759369 
z"/>
<path fill="#2810F0" opacity="1.000000" stroke="none" 
	d="
M283.902771,183.580872 
	C287.966125,182.827652 291.719666,182.108063 294.461609,185.922409 
	C296.846893,189.240616 296.107666,192.475433 294.043732,195.306229 
	C291.888580,198.262131 288.468109,198.772995 285.172150,197.585449 
	C281.865448,196.394043 279.534576,193.767700 280.154572,190.138901 
	C280.534119,187.917526 282.399567,185.950027 283.902771,183.580872 
z"/>
<path fill="#2810F0" opacity="1.000000" stroke="none" 
	d="
M259.040649,141.186005 
	C261.675323,146.163803 258.810120,149.164749 255.703598,151.603287 
	C253.342422,153.456757 247.368118,151.674927 245.558014,149.023193 
	C243.240936,145.628784 243.336273,142.289429 246.270355,139.266068 
	C249.024429,136.428192 253.642593,136.123749 257.016327,138.571426 
	C257.793579,139.135330 258.321014,140.043625 259.040649,141.186005 
z"/>
<path fill="#2810F0" opacity="1.000000" stroke="none" 
	d="
M295.793488,170.525040 
	C290.611389,175.162338 286.547241,175.042282 283.033997,170.512222 
	C280.897705,167.757706 281.657623,162.033203 284.596008,159.960037 
	C287.780670,157.713135 291.295990,157.463425 294.332092,159.960922 
	C297.675812,162.711487 297.777893,166.382416 295.793488,170.525040 
z"/>
<path fill="#2810F0" opacity="1.000000" stroke="none" 
	d="
M246.893738,175.412567 
	C243.135544,172.697250 241.793716,168.337051 243.484009,165.033936 
	C245.277832,161.528519 249.495789,159.870285 253.500504,161.217941 
	C258.071320,162.756104 258.458771,166.562256 257.921387,170.436844 
	C257.319489,174.776428 254.249252,176.267776 250.139496,175.994537 
	C249.156601,175.929199 248.178040,175.798904 246.893738,175.412567 
z"/>
<path fill="#2810F0" opacity="1.000000" stroke="none" 
	d="
M264.208038,159.524994 
	C262.307556,155.414566 261.932495,151.177582 265.851807,149.338028 
	C268.584961,148.055206 272.858795,148.380219 275.767639,149.600418 
	C278.903107,150.915680 278.888519,158.298767 276.454041,161.026550 
	C273.691071,164.122391 268.143463,163.598434 264.208038,159.524994 
z"/>
<path fill="#2810F0" opacity="1.000000" stroke="none" 
	d="
M276.053406,182.783661 
	C273.772552,187.251938 270.178284,187.796341 266.246399,186.647797 
	C262.355164,185.511093 260.598419,180.467224 262.026825,175.423035 
	C262.638214,173.264008 268.858032,171.139496 271.948273,172.034119 
	C275.816711,173.154068 277.616547,177.603073 276.053406,182.783661 
z"/>
<path fill="#2810F0" opacity="1.000000" stroke="none" 
	d="
M283.001923,143.660538 
	C283.028625,136.664902 284.871002,134.142456 289.746155,134.000565 
	C294.480988,133.862762 297.863708,137.080811 298.010071,141.771255 
	C298.128296,145.560883 296.502380,148.349670 292.760742,148.872925 
	C288.687592,149.442566 284.239136,149.754410 283.001923,143.660538 
z"/>
<path fill="#2810F0" opacity="1.000000" stroke="none" 
	d="
M271.178284,196.644775 
	C275.845581,198.715546 275.265656,202.485825 273.640472,205.226166 
	C272.727753,206.765198 269.178375,207.689072 267.060364,207.353439 
	C263.436127,206.779129 262.051117,203.536423 263.141663,200.211807 
	C264.277496,196.749023 266.998688,195.024490 271.178284,196.644775 
z"/>
<path fill="#2810F0" opacity="1.000000" stroke="none" 
	d="
M252.200165,196.338242 
	C247.690552,197.849487 245.070541,195.688675 244.165634,192.031387 
	C243.299835,188.532181 245.625015,185.442001 248.875107,185.333908 
	C251.110703,185.259521 254.402283,187.450760 255.388260,189.508118 
	C256.061127,190.912155 253.570724,193.832184 252.200165,196.338242 
z"/>
<path fill="#2810F0" opacity="1.000000" stroke="none" 
	d="
M266.996887,133.940155 
	C265.141174,129.907578 266.488831,127.047203 270.007111,126.208702 
	C272.080414,125.714600 275.405884,126.520309 276.800171,128.016388 
	C279.158508,130.546875 278.647827,133.891098 275.458435,135.940262 
	C272.306610,137.965286 269.324219,137.667297 266.996887,133.940155 
z"/>
<path fill="#2810F0" opacity="1.000000" stroke="none" 
	d="
M314.999695,153.066772 
	C315.566711,157.951385 311.772278,158.905350 309.242493,158.645737 
	C307.338440,158.450363 304.859680,155.571274 304.205536,153.411652 
	C303.210724,150.127411 305.001984,147.367615 308.840546,147.044220 
	C312.740051,146.715683 314.921295,148.608200 314.999695,153.066772 
z"/>
<path fill="#FFFFFF" opacity="1.000000" stroke="none" 
	d="
M899.000000,141.994751 
	C899.000000,137.524094 899.000000,133.548645 899.000000,129.237137 
	C905.299438,128.736954 912.097717,127.567711 915.254333,134.176895 
	C916.991211,137.813507 917.130188,143.377838 915.637085,147.139282 
	C912.903992,154.024750 905.852600,153.790115 899.000000,154.075195 
	C899.000000,150.054123 899.000000,146.272049 899.000000,141.994751 
z"/>
<path fill="#FFFFFF" opacity="1.000000" stroke="none" 
	d="
M591.730408,152.067474 
	C587.450745,152.964340 583.567505,153.782059 579.259094,154.689301 
	C579.259094,145.714188 579.259094,137.634293 579.252075,129.553009 
	C588.524780,127.945778 593.954224,129.625397 596.364075,134.847473 
	C599.497192,141.636688 598.220032,146.802841 591.730408,152.067474 
z"/>
<path fill="#FFFFFF" opacity="1.000000" stroke="none" 
	d="
M855.001587,135.983551 
	C855.550232,134.415894 856.060608,133.247528 857.018250,131.055115 
	C859.244568,136.234863 861.188477,140.757538 863.318115,145.712372 
	C858.972656,145.712372 855.110413,145.712372 850.866211,145.712372 
	C852.287903,142.475113 853.625610,139.428970 855.001587,135.983551 
z"/>
<path fill="#FFFFFF" opacity="1.000000" stroke="none" 
	d="
M753.799561,135.443802 
	C755.206543,139.049850 756.439453,142.309616 757.763794,145.811218 
	C753.853027,145.811218 750.157715,145.811218 745.792847,145.811218 
	C747.641296,141.111588 749.397827,136.645630 751.346436,131.691193 
	C752.290649,133.102386 752.958069,134.099945 753.799561,135.443802 
z"/>
<path fill="#FFFFFF" opacity="1.000000" stroke="none" 
	d="
M810.994507,129.000000 
	C812.957275,129.000015 814.448975,128.978928 815.939819,129.004135 
	C819.893005,129.070938 822.032959,131.098969 821.965149,135.046967 
	C821.898560,138.921738 819.832947,141.012741 815.844910,141.001709 
	C812.727356,140.993073 809.609802,140.999969 806.247925,140.999969 
	C806.247925,136.995316 806.247925,133.268982 806.247925,129.200912 
	C807.660034,129.134552 809.091553,129.067276 810.994507,129.000000 
z"/>
<path fill="#FFFFFF" opacity="1.000000" stroke="none" 
	d="
M715.153564,194.000000 
	C720.452759,194.000015 725.312439,193.631348 730.062805,194.190643 
	C731.838379,194.399704 733.359192,196.772232 734.996216,198.158295 
	C733.405884,199.105453 731.853210,200.785767 730.218567,200.869766 
	C723.960754,201.191315 717.676697,200.999802 711.204834,200.999802 
	C711.204834,198.698318 711.204834,196.758255 711.204834,194.336136 
	C712.228333,194.236862 713.449463,194.118423 715.153564,194.000000 
z"/>
<path fill="#FFFFFF" opacity="1.000000" stroke="none" 
	d="
M711.002441,186.916809 
	C711.000244,185.138214 711.000244,183.832581 711.000244,182.007736 
	C717.941101,182.007736 724.688843,181.883392 731.423706,182.121902 
	C732.641296,182.165039 734.597839,183.561981 734.772522,184.580887 
	C734.946655,185.596878 733.360901,187.910538 732.459351,187.957001 
	C725.350891,188.323227 718.221436,188.283752 711.098267,188.326828 
	C711.068970,188.327011 711.035950,187.715561 711.002441,186.916809 
z"/>
</svg>